<svg id="Capa_1" enable-background="new 0 0 510.083 510.083" height="512" viewBox="0 0 510.083 510.083" width="512" xmlns="http://www.w3.org/2000/svg"><g><circle cx="255.026" cy="255.052" fill="#ffe470" r="71"/><path d="m326.026 255.052c0 39.15-31.85 71-71 71v-142c39.15 0 71 31.85 71 71z" fill="#fabe2c"/><path d="m435.336 74.742c-88.361-88.379-223.134-97.261-321-32.4-1.516 1.011-49.39 42.713-50.42 43.86-78.416 88.694-86.201 221.596-14.9 319.17.913 1.241 44.941 47.394 46.28 48.47 98.216 79.048 245.259 76.321 340.04-18.48 99.646-99.626 99.681-260.96 0-360.62zm-180.31 405.31c-51.56 0-100.01-16.93-140.17-48.98l-42.19-44.18c-62.423-86.184-54.9-202.53 13.09-280.09l45.96-39.99c36.64-24.05 79.25-36.76 123.31-36.76 124.07 0 225 100.93 225 225s-100.93 225-225 225z" fill="#55696e"/><path d="m510.026 255.052c0 140.938-114.056 255-255 255v-30c124.07 0 225-100.93 225-225s-100.93-225-225-225v-30c140.937 0 255 114.055 255 255z" fill="#404a4a"/><path d="m413.156 179.992c-.979-2.071 1.661 1.719-39.81-53.5-.59-.8-1.27-1.53-2.02-2.2-32.06-28.53-73.36-44.24-116.3-44.24-96.5 0-175 78.5-175 175s78.5 175 175 175c1.311 0 2.394.033 4.09-.32 68.391-14.349 63.438-13.176 65.47-14.05 91.414-39.635 130.717-146.989 88.57-235.69zm-99.15 207.57c-.997.209-58.676 12.318-59.52 12.49-79.71-.29-144.46-65.23-144.46-145 0-79.95 65.05-145 145-145 35.09 0 68.86 12.66 95.26 35.69l36.4 48.46c33.563 72.473 1.928 160.113-72.68 193.36z" fill="#55696e"/><path d="m324.586 415.682c-.93.4-1.9.71-2.89.92-69.613 14.606-63.042 13.45-66.67 13.45v-30.11l58.98-12.38c74.708-33.291 106.192-120.996 72.68-193.36l-36.4-48.46c-26.4-23.03-60.17-35.69-95.26-35.69v-30c42.94 0 84.24 15.71 116.3 44.24.75.67 1.43 1.4 2.02 2.2 41.92 55.817 38.912 51.6 39.81 53.5 42.074 88.547 2.979 195.997-88.57 235.69z" fill="#404a4a"/><circle cx="383.026" cy="159.052" fill="#66b3ff" r="47"/><circle cx="95.026" cy="71.052" fill="#ade232" r="47"/><circle cx="79.026" cy="423.052" fill="#dcf0ff" r="47"/><circle cx="287.026" cy="407.052" fill="#ff435b" r="47"/></g></svg>